<svg version="1.1" id="Layer_1" xmlns="http://www.w3.org/2000/svg" xmlns:xlink="http://www.w3.org/1999/xlink" x="0px" y="0px"
	 width="100%" viewBox="0 0 409 409" enable-background="new 0 0 409 409" xml:space="preserve">
<path fill="#FEFEFE" opacity="1.000000" stroke="none" 
	d="
M158.000000,410.000000 
	C105.702972,410.000000 53.405937,410.000000 1.054454,410.000000 
	C1.054454,273.666656 1.054454,137.333328 1.054454,1.000000 
	C22.425581,1.000000 43.744133,1.000000 65.428154,1.379219 
	C63.229847,2.433558 60.388210,2.630573 58.178432,3.914814 
	C55.848972,5.268608 52.703899,7.546730 52.536762,9.631220 
	C52.373390,11.668702 55.063877,14.847529 57.290859,15.999265 
	C65.105713,20.040892 73.413513,23.129147 81.229576,27.168697 
	C85.961052,29.614050 89.903122,30.030920 94.017578,26.484253 
	C98.109520,28.898275 102.002792,30.971188 105.951996,33.405472 
	C104.788292,38.039387 106.228935,40.936535 110.008606,43.389683 
	C115.698929,47.082924 123.193031,49.809479 121.076973,59.116722 
	C121.044838,59.258057 121.123177,59.462891 121.216507,59.588741 
	C123.360451,62.479836 121.636856,64.257309 119.597198,66.279259 
	C105.284218,80.467979 91.057190,94.743423 76.804512,108.992966 
	C57.603901,128.189392 38.449829,147.432709 19.173649,166.552948 
	C14.365568,171.322144 12.195677,176.715469 14.183112,183.271255 
	C18.823524,198.578171 35.188705,202.694946 46.405266,191.475296 
	C78.673714,159.198044 110.955559,126.934166 143.177917,94.610985 
	C145.028168,92.754936 146.394867,90.416847 147.986618,88.303101 
	C151.114273,90.205276 153.143539,91.083916 155.232864,91.263351 
	C161.616699,91.811607 163.611496,93.303375 165.966202,99.955856 
	C152.114410,101.230354 149.881516,103.690048 149.881393,117.678246 
	C149.880615,209.793655 149.939255,301.909180 149.763840,394.024261 
	C149.750198,401.180267 151.557083,406.573914 158.000000,410.000000 
z"/>
<path fill="#070607" opacity="1.000000" stroke="none" 
	d="
M158.468658,410.000000 
	C151.557083,406.573914 149.750198,401.180267 149.763840,394.024261 
	C149.939255,301.909180 149.880615,209.793655 149.881393,117.678246 
	C149.881516,103.690048 152.114410,101.230354 165.966202,99.955856 
	C163.611496,93.303375 161.616699,91.811607 155.232864,91.263351 
	C153.143539,91.083916 151.114273,90.205276 147.986618,88.303101 
	C146.394867,90.416847 145.028168,92.754936 143.177917,94.610985 
	C110.955559,126.934166 78.673714,159.198044 46.405266,191.475296 
	C35.188705,202.694946 18.823524,198.578171 14.183112,183.271255 
	C12.195677,176.715469 14.365568,171.322144 19.173649,166.552948 
	C38.449829,147.432709 57.603901,128.189392 76.804512,108.992966 
	C91.057190,94.743423 105.284218,80.467979 119.597198,66.279259 
	C121.636856,64.257309 123.360451,62.479836 121.216507,59.588741 
	C121.123177,59.462891 121.044838,59.258057 121.076973,59.116722 
	C123.193031,49.809479 115.698929,47.082924 110.008606,43.389683 
	C106.228935,40.936535 104.788292,38.039387 106.319138,33.322468 
	C110.040169,30.388153 113.267952,30.596365 116.660500,33.133568 
	C120.753929,36.194942 125.052902,38.981464 128.739197,41.525513 
	C131.972565,38.654121 134.853302,36.095867 137.778854,33.497833 
	C122.175537,21.501001 92.132668,10.946673 82.603165,14.052884 
	C87.186836,17.386173 94.814697,17.848873 93.818916,26.143143 
	C89.903122,30.030920 85.961052,29.614050 81.229576,27.168697 
	C73.413513,23.129147 65.105713,20.040892 57.290859,15.999265 
	C55.063877,14.847529 52.373390,11.668702 52.536762,9.631220 
	C52.703899,7.546730 55.848972,5.268608 58.178432,3.914814 
	C60.388210,2.630573 63.229847,2.433558 65.896812,1.379219 
	C74.354233,1.000000 82.708466,1.000000 91.678764,1.378643 
	C111.087425,4.546060 128.049393,11.836082 143.655869,22.526724 
	C144.876953,23.363184 147.090759,24.506308 147.828598,24.007153 
	C152.585709,20.788933 157.207977,21.645525 161.983063,24.098579 
	C164.362686,21.623415 166.454269,19.235186 168.767090,17.084921 
	C174.161179,12.069996 180.294174,12.038282 185.695328,17.020693 
	C188.753082,19.841385 191.693314,22.801491 194.540771,25.835545 
	C199.736282,31.371519 199.804672,37.682529 194.629745,43.171036 
	C192.374313,45.563126 189.736145,47.594326 187.276276,49.785435 
	C191.858963,55.959061 190.398132,61.140701 187.515884,65.227112 
	C189.808121,74.727196 195.937302,75.652687 203.890961,75.611153 
	C263.677124,75.298965 323.465607,75.433586 383.253387,75.450081 
	C392.777863,75.452705 397.561707,79.544250 397.573914,88.169266 
	C397.649017,141.295349 397.607208,194.421570 397.631317,247.547745 
	C397.633118,251.541290 396.180542,254.317764 391.651733,255.099136 
	C385.862976,254.284851 385.615936,250.370087 385.618500,246.118637 
	C385.649078,195.218781 385.637970,144.318909 385.637726,93.419029 
	C385.637726,91.509995 385.637726,89.600960 385.637726,87.777046 
	C379.196503,87.777046 373.576965,87.777046 367.509949,87.643318 
	C311.313293,87.509590 255.564133,87.509590 199.225739,87.509590 
	C200.285294,90.244377 201.430603,92.166992 201.745941,94.217255 
	C202.543137,99.400513 205.391296,100.409485 210.350876,100.379639 
	C248.848389,100.147926 287.348175,100.313965 325.846497,100.164833 
	C330.224213,100.147865 333.331604,101.510620 336.364166,104.584221 
	C346.768921,115.129776 357.418945,125.433311 368.108246,136.156998 
	C372.058411,139.380508 372.857788,143.256897 372.850433,147.915009 
	C372.734985,221.038467 372.769287,294.162170 372.769135,367.285828 
	C372.769135,369.194916 372.769104,371.104004 372.769104,372.955994 
	C377.040680,372.955994 380.524506,372.955994 384.359619,372.978821 
	C384.898895,372.637146 385.086945,372.272705 385.421631,371.547363 
	C385.467010,370.167969 385.365692,369.149414 385.394287,367.736420 
	C385.474762,336.500305 385.425262,305.658600 385.561096,274.562469 
	C387.481567,272.586700 389.216736,270.865417 391.283936,269.287537 
	C395.725189,270.033386 397.627716,272.430542 397.624756,276.562073 
	C397.601654,308.703613 397.683899,340.845428 397.552124,372.986450 
	C397.520325,380.748718 392.682312,385.057190 384.758698,385.153931 
	C380.840912,385.201752 376.922058,385.162231 372.875458,385.162231 
	C372.435913,394.615326 375.219604,404.469543 365.000000,410.000000 
	C296.312439,410.000000 227.624878,410.000000 158.468658,410.000000 
M360.681213,396.490326 
	C360.623688,396.277252 360.566132,396.064209 360.749695,395.314972 
	C360.671143,394.939697 360.592590,394.564423 360.716339,393.337250 
	C360.728180,313.622345 360.743835,233.907455 360.720184,154.192566 
	C360.719788,152.822327 360.244751,151.452225 359.145081,149.647064 
	C352.150635,149.608917 345.156189,149.562057 338.161713,149.534668 
	C327.659058,149.493530 323.644745,145.520996 323.615356,135.069016 
	C323.594391,127.619217 323.611267,120.169312 323.611267,112.498474 
	C284.462769,112.498474 245.885269,112.498474 206.818390,112.498474 
	C207.073807,114.360069 207.549957,115.986504 207.475571,117.587357 
	C206.991272,128.009323 206.574554,138.441162 205.717484,148.835281 
	C205.431686,152.301270 204.056015,155.863007 199.645752,156.321503 
	C195.155441,156.788315 193.828690,153.386810 192.328400,150.131027 
	C187.039154,138.652802 181.750259,127.172638 176.243973,115.798378 
	C175.521881,114.306763 173.660660,112.673103 172.112091,112.419899 
	C168.917496,111.897575 165.577805,112.262650 161.902298,112.262650 
	C161.902298,114.452911 161.902313,116.087189 161.902313,117.721466 
	C161.902008,209.493088 161.901245,301.264709 161.905594,393.036316 
	C161.905655,394.364929 161.820938,395.725098 162.092697,397.003113 
	C162.175034,397.390320 163.325500,397.550354 164.651398,397.967041 
	C165.099197,397.910950 165.546982,397.854889 166.656433,397.980225 
	C167.105911,397.921051 167.555405,397.861877 168.928207,397.971497 
	C219.696533,397.977814 270.464874,397.991547 321.233185,397.981873 
	C328.218231,397.980530 335.203278,397.863159 342.954254,397.954865 
	C343.210175,397.906006 343.466064,397.857178 344.414703,397.985748 
	C349.777527,397.699799 355.140320,397.413849 360.681213,396.490326 
M70.629677,132.129700 
	C56.500134,146.257370 42.328438,160.343552 28.310799,174.581406 
	C27.008413,175.904251 25.632032,178.518753 26.086948,179.970383 
	C28.028505,186.165878 33.551525,187.302704 38.057365,182.799469 
	C64.438889,156.433258 90.815613,130.062271 117.185303,103.684242 
	C118.218941,102.650284 119.164642,101.528427 119.806931,100.824806 
	C116.894638,97.635536 114.164101,94.645317 111.258133,91.462975 
	C97.708138,105.021645 84.415749,118.322540 70.629677,132.129700 
M140.092361,63.406338 
	C145.275131,68.711464 150.457886,74.016586 155.118942,78.787689 
	C162.801041,71.210457 169.854904,64.252899 176.839615,57.363533 
	C169.478241,50.146519 161.937759,42.753906 154.653030,35.612026 
	C147.848938,42.455849 140.781754,49.564301 133.133865,57.256851 
	C135.092590,58.970337 137.341995,60.938107 140.092361,63.406338 
M186.106918,108.393440 
	C189.157272,114.352669 192.207611,120.311890 195.257965,126.271118 
	C194.754990,107.344315 188.983200,90.390953 178.366653,75.159454 
	C175.231201,77.897774 172.440216,80.335258 169.946274,82.513321 
	C175.535019,91.407196 180.662552,99.567116 186.106918,108.393440 
M135.124466,75.332985 
	C133.843811,74.151039 132.563141,72.969093 131.729095,72.199341 
	C127.844856,76.108192 124.298851,79.676659 121.491890,82.501404 
	C123.854195,85.405922 126.403625,88.540512 128.817581,91.508530 
	C132.863358,87.592125 136.411407,84.157539 140.959702,79.754677 
	C139.075897,78.370949 137.351807,77.104530 135.124466,75.332985 
M335.584503,135.792740 
	C336.067719,136.362381 336.538116,137.413544 337.036133,137.426804 
	C341.755188,137.552490 346.478912,137.501663 351.173950,137.501663 
	C345.871399,132.218933 340.882477,127.248665 335.561218,121.947281 
	C335.561218,126.347618 335.561218,130.627411 335.584503,135.792740 
M176.972992,39.729897 
	C178.175339,39.912022 179.703781,40.648621 180.517548,40.170025 
	C182.760834,38.850666 184.705078,37.022789 186.175659,35.862911 
	C182.471832,32.092041 179.637741,29.206648 176.692749,26.208353 
	C174.715027,28.144022 172.508667,30.303446 169.704208,33.048267 
	C172.105972,35.229504 174.288834,37.211945 176.972992,39.729897 
z"/>
<path fill="#FEFEFE" opacity="1.000000" stroke="none" 
	d="
M392.028076,255.191925 
	C396.180542,254.317764 397.633118,251.541290 397.631317,247.547745 
	C397.607208,194.421570 397.649017,141.295349 397.573914,88.169266 
	C397.561707,79.544250 392.777863,75.452705 383.253387,75.450081 
	C323.465607,75.433586 263.677124,75.298965 203.890961,75.611153 
	C195.937302,75.652687 189.808121,74.727196 187.515884,65.227112 
	C190.398132,61.140701 191.858963,55.959061 187.276276,49.785435 
	C189.736145,47.594326 192.374313,45.563126 194.629745,43.171036 
	C199.804672,37.682529 199.736282,31.371519 194.540771,25.835545 
	C191.693314,22.801491 188.753082,19.841385 185.695328,17.020693 
	C180.294174,12.038282 174.161179,12.069996 168.767090,17.084921 
	C166.454269,19.235186 164.362686,21.623415 161.983063,24.098579 
	C157.207977,21.645525 152.585709,20.788933 147.828598,24.007153 
	C147.090759,24.506308 144.876953,23.363184 143.655869,22.526724 
	C128.049393,11.836082 111.087425,4.546060 92.147415,1.378643 
	C197.939896,1.000000 303.879791,1.000000 409.909851,1.000000 
	C409.909851,137.333298 409.909851,273.666626 409.911194,410.000000 
	C395.254120,410.000000 380.595734,410.000000 365.468658,410.000000 
	C375.219604,404.469543 372.435913,394.615326 372.875458,385.162231 
	C376.922058,385.162231 380.840912,385.201752 384.758698,385.153931 
	C392.682312,385.057190 397.520325,380.748718 397.552124,372.986450 
	C397.683899,340.845428 397.601654,308.703613 397.624756,276.562073 
	C397.627716,272.430542 395.725189,270.033386 391.321533,268.864014 
	C391.360718,263.928680 391.694397,259.560303 392.028076,255.191925 
z"/>
<path fill="#28425C" opacity="1.000000" stroke="none" 
	d="
M94.017578,26.484253 
	C94.814697,17.848873 87.186836,17.386173 82.603165,14.052884 
	C92.132668,10.946673 122.175537,21.501001 137.778854,33.497833 
	C134.853302,36.095867 131.972565,38.654121 128.739197,41.525513 
	C125.052902,38.981464 120.753929,36.194942 116.660500,33.133568 
	C113.267952,30.596365 110.040169,30.388153 106.263214,32.961098 
	C102.002792,30.971188 98.109520,28.898275 94.017578,26.484253 
z"/>
<path fill="#E8F4FD" opacity="1.000000" stroke="none" 
	d="
M168.004898,397.802673 
	C167.555405,397.861877 167.105911,397.921051 166.272339,397.594177 
	C165.007828,396.464874 164.127380,395.721619 162.658920,394.481934 
	C163.295029,396.078430 163.640869,396.946442 163.986725,397.814423 
	C163.325500,397.550354 162.175034,397.390320 162.092697,397.003113 
	C161.820938,395.725098 161.905655,394.364929 161.905594,393.036316 
	C161.901245,301.264709 161.902008,209.493088 161.902313,117.721466 
	C161.902313,116.087189 161.902298,114.452911 161.902298,112.262650 
	C165.577805,112.262650 168.917496,111.897575 172.112091,112.419899 
	C173.660660,112.673103 175.521881,114.306763 176.243973,115.798378 
	C181.750259,127.172638 187.039154,138.652802 192.328400,150.131027 
	C193.828690,153.386810 195.155441,156.788315 199.645752,156.321503 
	C204.056015,155.863007 205.431686,152.301270 205.717484,148.835281 
	C206.574554,138.441162 206.991272,128.009323 207.475571,117.587357 
	C207.549957,115.986504 207.073807,114.360069 206.818390,112.498474 
	C245.885269,112.498474 284.462769,112.498474 323.611267,112.498474 
	C323.611267,120.169312 323.594391,127.619217 323.615356,135.069016 
	C323.644745,145.520996 327.659058,149.493530 338.161713,149.534668 
	C345.156189,149.562057 352.150635,149.608917 359.449982,150.075211 
	C359.541351,150.759064 359.275146,150.935120 358.491547,151.026215 
	C354.551819,151.018311 351.066895,151.177719 347.604645,150.966354 
	C344.319366,150.765762 342.772430,151.654785 342.941528,155.326874 
	C343.238068,161.767654 343.107971,168.228058 342.731628,174.712952 
	C318.309174,174.741684 294.311615,174.734695 270.314087,174.741989 
	C268.984619,174.742386 267.227661,174.348450 266.412170,175.028442 
	C264.548828,176.582214 262.105042,178.570389 261.874268,180.606216 
	C261.677399,182.343185 263.914368,184.826920 265.691345,186.155518 
	C266.930481,187.081970 269.211304,186.745285 271.027435,186.750259 
	C295.022522,186.815918 319.017761,186.842056 343.013672,187.343170 
	C343.007812,191.697571 343.001221,195.586853 342.568695,199.519394 
	C309.816406,199.549530 277.490082,199.532944 245.163757,199.535629 
	C243.837921,199.535736 242.096802,199.222443 241.272171,199.915482 
	C239.521042,201.387177 237.022354,203.478043 237.095718,205.219650 
	C237.182114,207.270752 239.382004,209.566635 241.221649,211.080460 
	C242.265808,211.939713 244.422943,211.545212 246.079056,211.547440 
	C278.404388,211.590759 310.729736,211.609329 343.046570,212.124573 
	C343.028809,272.549957 343.013306,332.483734 343.040100,392.417511 
	C343.040924,394.214539 343.484711,396.011414 343.721924,397.808350 
	C343.466064,397.857178 343.210175,397.906006 342.372620,397.461365 
	C340.388672,396.645416 338.986603,396.042145 337.584045,396.040924 
	C282.398651,395.992859 227.213181,395.986816 172.027878,396.074585 
	C170.685959,396.076721 169.345856,397.201538 168.004898,397.802673 
M194.846497,344.400940 
	C196.335754,345.861969 197.625031,347.643036 199.352646,348.722626 
	C204.101288,351.690002 209.189621,354.128448 213.848099,357.221161 
	C218.177719,360.095581 221.963959,360.459290 226.171982,357.120483 
	C229.760040,359.082062 233.348099,361.043610 236.940002,363.726379 
	C235.565796,368.157501 237.344070,370.941376 241.298325,373.044769 
	C246.877899,376.012787 252.378494,379.161255 257.712372,382.548309 
	C261.389771,384.883545 264.575195,384.909302 268.357300,382.693298 
	C287.742218,371.335205 307.191742,360.085358 326.719574,348.974976 
	C330.559631,346.790161 331.923065,343.982758 331.895050,339.672272 
	C331.751007,317.519989 331.735199,295.365631 331.903198,273.213715 
	C331.937592,268.680267 330.451691,265.820709 326.458923,263.552673 
	C307.068756,252.538483 287.758820,241.380295 268.533478,230.080856 
	C264.562561,227.747009 261.358643,227.971039 257.464264,230.261597 
	C238.385239,241.483292 219.103836,252.362137 200.081970,263.678223 
	C197.545258,265.187286 196.079865,268.497223 193.478287,271.527802 
	C193.332352,271.996124 193.059433,272.464233 193.058731,272.932770 
	C193.024933,295.472260 192.994003,318.011841 193.063232,340.551117 
	C193.066650,341.663300 193.966202,342.772736 194.846497,344.400940 
M308.462280,149.895615 
	C295.160980,149.897141 281.859650,149.900101 268.558350,149.899307 
	C264.454559,149.899063 261.663971,151.690460 261.653870,155.991547 
	C261.645142,159.716019 264.048187,161.845398 267.735107,161.862900 
	C284.194763,161.941010 300.655548,161.951950 317.114746,161.830460 
	C320.789062,161.803314 323.054565,159.575790 323.007690,155.810440 
	C322.960480,152.020355 320.588165,150.132736 316.926239,149.938248 
	C314.438995,149.806152 311.939667,149.901840 308.462280,149.895615 
M179.428284,171.955078 
	C178.520706,172.371323 177.593475,172.749802 176.709030,173.210464 
	C173.253006,175.010498 171.687134,177.798874 173.467606,181.434601 
	C175.221985,185.017120 178.320419,185.705215 181.915375,184.027832 
	C185.532608,182.340027 189.243301,180.819321 192.728210,178.891296 
	C195.691605,177.251801 196.869644,174.550659 195.334045,171.266220 
	C193.824783,168.038040 191.065140,167.060303 187.838928,168.154358 
	C185.176514,169.057220 182.688080,170.473145 179.428284,171.955078 
M208.085098,186.420197 
	C208.586258,187.467743 209.062195,188.528259 209.593201,189.560471 
	C211.369049,193.012634 214.118729,194.589310 217.779297,192.868408 
	C221.442459,191.146317 222.000061,187.992493 220.442780,184.455261 
	C218.972046,181.114578 217.513565,177.754486 215.785446,174.545242 
	C214.189941,171.582306 211.575958,170.192551 208.269958,171.585068 
	C204.805801,173.044189 203.755936,175.884094 204.960266,179.367096 
	C205.715607,181.551590 206.854019,183.603622 208.085098,186.420197 
M229.484146,161.980637 
	C230.686996,161.414032 231.919357,160.901932 233.087036,160.270325 
	C236.276093,158.545395 237.863892,155.957031 236.311630,152.439224 
	C234.671677,148.722641 231.548615,147.972382 227.980591,149.462341 
	C224.608368,150.870544 220.917114,152.037338 218.203949,154.310318 
	C216.503021,155.735275 215.340286,159.187286 215.737213,161.407852 
	C216.335709,164.756119 219.548492,165.857834 222.865707,164.884262 
	C224.916306,164.282425 226.813187,163.156723 229.484146,161.980637 
z"/>
<path fill="#F1CFC3" opacity="1.000000" stroke="none" 
	d="
M391.651733,255.099136 
	C391.694397,259.560303 391.360718,263.928680 390.989441,268.720581 
	C389.216736,270.865417 387.481567,272.586700 385.202454,274.830536 
	C384.434509,276.467316 384.016357,277.581329 384.014923,278.695862 
	C383.978729,307.161285 383.968750,335.626740 384.040253,364.092041 
	C384.043640,365.439301 384.838226,366.784637 385.264343,368.130859 
	C385.365692,369.149414 385.467010,370.167969 385.161804,371.660706 
	C384.506287,372.408600 384.257324,372.682281 384.008362,372.955994 
	C380.524506,372.955994 377.040680,372.955994 372.769104,372.955994 
	C372.769104,371.104004 372.769135,369.194916 372.769135,367.285828 
	C372.769287,294.162170 372.734985,221.038467 372.850433,147.915009 
	C372.857788,143.256897 372.058411,139.380508 368.108521,135.699890 
	C367.969849,119.202286 367.963654,103.489662 367.957458,87.777046 
	C373.576965,87.777046 379.196503,87.777046 385.637726,87.777046 
	C385.637726,89.600960 385.637726,91.509995 385.637726,93.419029 
	C385.637970,144.318909 385.649078,195.218781 385.618500,246.118637 
	C385.615936,250.370087 385.862976,254.284851 391.651733,255.099136 
z"/>
<path fill="#D1E4F4" opacity="1.000000" stroke="none" 
	d="
M344.068298,397.897034 
	C343.484711,396.011414 343.040924,394.214539 343.040100,392.417511 
	C343.013306,332.483734 343.028809,272.549957 343.303162,211.922913 
	C345.012543,209.297852 347.760193,207.222946 347.567810,205.470886 
	C347.332855,203.331055 344.630157,201.462189 342.994659,199.476151 
	C343.001221,195.586853 343.007812,191.697571 343.273376,187.125092 
	C349.673523,182.750763 349.534576,178.401428 343.156555,174.680252 
	C343.107971,168.228058 343.238068,161.767654 342.941528,155.326874 
	C342.772430,151.654785 344.319366,150.765762 347.604645,150.966354 
	C351.066895,151.177719 354.551819,151.018311 358.504028,151.491104 
	C358.984253,230.572464 358.975250,309.183594 359.054077,387.794678 
	C359.056213,389.926666 360.006073,392.057678 360.514038,394.189148 
	C360.592590,394.564423 360.671143,394.939697 360.384583,395.698059 
	C360.180695,396.430084 360.341919,396.778992 360.503143,397.127899 
	C355.140320,397.413849 349.777527,397.699799 344.068298,397.897034 
z"/>
<path fill="#FDEBE4" opacity="1.000000" stroke="none" 
	d="
M367.509949,87.643318 
	C367.963654,103.489662 367.969849,119.202286 367.975769,135.372009 
	C357.418945,125.433311 346.768921,115.129776 336.364166,104.584221 
	C333.331604,101.510620 330.224213,100.147865 325.846497,100.164833 
	C287.348175,100.313965 248.848389,100.147926 210.350876,100.379639 
	C205.391296,100.409485 202.543137,99.400513 201.745941,94.217255 
	C201.430603,92.166992 200.285294,90.244377 199.225739,87.509590 
	C255.564133,87.509590 311.313293,87.509590 367.509949,87.643318 
z"/>
<path fill="#F5BA66" opacity="1.000000" stroke="none" 
	d="
M70.876526,131.876556 
	C84.415749,118.322540 97.708138,105.021645 111.258133,91.462975 
	C114.164101,94.645317 116.894638,97.635536 119.806931,100.824806 
	C119.164642,101.528427 118.218941,102.650284 117.185303,103.684242 
	C90.815613,130.062271 64.438889,156.433258 38.057365,182.799469 
	C33.551525,187.302704 28.028505,186.165878 26.086948,179.970383 
	C25.632032,178.518753 27.008413,175.904251 28.310799,174.581406 
	C42.328438,160.343552 56.500134,146.257370 70.876526,131.876556 
z"/>
<path fill="#4E6A8A" opacity="1.000000" stroke="none" 
	d="
M139.841888,63.156105 
	C137.341995,60.938107 135.092590,58.970337 133.133865,57.256851 
	C140.781754,49.564301 147.848938,42.455849 154.653030,35.612026 
	C161.937759,42.753906 169.478241,50.146519 176.839615,57.363533 
	C169.854904,64.252899 162.801041,71.210457 155.118942,78.787689 
	C150.457886,74.016586 145.275131,68.711464 139.841888,63.156105 
z"/>
<path fill="#E3F7FF" opacity="1.000000" stroke="none" 
	d="
M360.615173,393.763184 
	C360.006073,392.057678 359.056213,389.926666 359.054077,387.794678 
	C358.975250,309.183594 358.984253,230.572464 358.968750,151.496429 
	C359.275146,150.935120 359.541351,150.759064 359.873047,150.292709 
	C360.244751,151.452225 360.719788,152.822327 360.720184,154.192566 
	C360.743835,233.907455 360.728180,313.622345 360.615173,393.763184 
z"/>
<path fill="#27415A" opacity="1.000000" stroke="none" 
	d="
M185.948502,108.060242 
	C180.662552,99.567116 175.535019,91.407196 169.946274,82.513321 
	C172.440216,80.335258 175.231201,77.897774 178.366653,75.159454 
	C188.983200,90.390953 194.754990,107.344315 195.257965,126.271118 
	C192.207611,120.311890 189.157272,114.352669 185.948502,108.060242 
z"/>
<path fill="#F3FCFF" opacity="1.000000" stroke="none" 
	d="
M168.466553,397.887085 
	C169.345856,397.201538 170.685959,396.076721 172.027878,396.074585 
	C227.213181,395.986816 282.398651,395.992859 337.584045,396.040924 
	C338.986603,396.042145 340.388672,396.645416 341.989655,397.383667 
	C335.203278,397.863159 328.218231,397.980530 321.233185,397.981873 
	C270.464874,397.991547 219.696533,397.977814 168.466553,397.887085 
z"/>
<path fill="#F3BB69" opacity="1.000000" stroke="none" 
	d="
M135.376083,75.585541 
	C137.351807,77.104530 139.075897,78.370949 140.959702,79.754677 
	C136.411407,84.157539 132.863358,87.592125 128.817581,91.508530 
	C126.403625,88.540512 123.854195,85.405922 121.491890,82.501404 
	C124.298851,79.676659 127.844856,76.108192 131.729095,72.199341 
	C132.563141,72.969093 133.843811,74.151039 135.376083,75.585541 
z"/>
<path fill="#FDE3D6" opacity="1.000000" stroke="none" 
	d="
M385.394287,367.736420 
	C384.838226,366.784637 384.043640,365.439301 384.040253,364.092041 
	C383.968750,335.626740 383.978729,307.161285 384.014923,278.695862 
	C384.016357,277.581329 384.434509,276.467316 385.017120,275.084991 
	C385.425262,305.658600 385.474762,336.500305 385.394287,367.736420 
z"/>
<path fill="#80D7E8" opacity="1.000000" stroke="none" 
	d="
M335.572876,135.349976 
	C335.561218,130.627411 335.561218,126.347618 335.561218,121.947281 
	C340.882477,127.248665 345.871399,132.218933 351.173950,137.501663 
	C346.478912,137.501663 341.755188,137.552490 337.036133,137.426804 
	C336.538116,137.413544 336.067719,136.362381 335.572876,135.349976 
z"/>
<path fill="#F1BA6C" opacity="1.000000" stroke="none" 
	d="
M176.722351,39.462139 
	C174.288834,37.211945 172.105972,35.229504 169.704208,33.048267 
	C172.508667,30.303446 174.715027,28.144022 176.692749,26.208353 
	C179.637741,29.206648 182.471832,32.092041 186.175659,35.862911 
	C184.705078,37.022789 182.760834,38.850666 180.517548,40.170025 
	C179.703781,40.648621 178.175339,39.912022 176.722351,39.462139 
z"/>
<path fill="#F3FCFF" opacity="1.000000" stroke="none" 
	d="
M164.319061,397.890747 
	C163.640869,396.946442 163.295029,396.078430 162.658920,394.481934 
	C164.127380,395.721619 165.007828,396.464874 165.941528,397.503479 
	C165.546982,397.854889 165.099197,397.910950 164.319061,397.890747 
z"/>
<path fill="#FDE3D6" opacity="1.000000" stroke="none" 
	d="
M384.359619,372.978821 
	C384.257324,372.682281 384.506287,372.408600 385.015106,372.021576 
	C385.086945,372.272705 384.898895,372.637146 384.359619,372.978821 
z"/>
<path fill="#E3F7FF" opacity="1.000000" stroke="none" 
	d="
M360.592163,396.809113 
	C360.341919,396.778992 360.180695,396.430084 360.264038,395.966187 
	C360.566132,396.064209 360.623688,396.277252 360.592163,396.809113 
z"/>
<path fill="#4E6C8C" opacity="1.000000" stroke="none" 
	d="
M236.936172,363.005157 
	C233.348099,361.043610 229.760040,359.082062 225.898148,356.455872 
	C226.331161,351.975037 224.705673,349.424896 221.407593,347.612183 
	C217.469620,345.447723 213.456833,343.354126 209.804993,340.766235 
	C208.323883,339.716614 206.850113,337.453003 206.832062,335.726593 
	C206.626556,316.076324 206.665161,296.422852 206.785828,276.771149 
	C206.794449,275.366669 207.566254,273.295441 208.642685,272.670990 
	C222.018753,264.911011 235.517151,257.361877 249.008057,250.128204 
	C249.845993,251.258972 250.552292,252.203583 251.490021,252.753815 
	C267.217438,261.982117 283.018707,271.086212 298.655334,280.465088 
	C300.252930,281.423309 301.808929,283.946045 301.845215,285.773346 
	C302.112640,299.239655 302.149261,312.717529 301.828278,326.181519 
	C301.775452,328.397278 300.169647,331.471405 298.330963,332.599518 
	C288.581482,338.581268 278.478058,343.982086 268.597870,349.756348 
	C261.625885,353.830963 254.814133,358.179718 247.540207,362.305237 
	C243.567810,360.210083 240.156586,360.390778 236.936172,363.005157 
M269.787781,325.079071 
	C264.586945,311.404572 259.551758,297.662262 254.013901,284.125671 
	C253.142807,281.996368 250.032227,279.577454 247.887833,279.510498 
	C245.697906,279.442078 242.219299,281.610596 241.378952,283.653168 
	C235.687851,297.486023 230.483032,311.521454 225.270706,325.547058 
	C223.935150,329.140839 224.994232,332.372009 228.797882,333.680756 
	C232.310944,334.889526 235.517731,333.295380 236.284073,329.809174 
	C237.562363,323.993988 241.116440,323.069305 246.098145,323.723999 
	C247.733582,323.938904 249.450546,323.951843 251.079681,323.712708 
	C254.996506,323.137848 257.232117,324.467804 258.268585,328.493652 
	C259.218353,332.182739 261.639832,334.886597 265.933380,333.795654 
	C269.980591,332.767303 270.629303,329.545135 269.787781,325.079071 
M296.928009,319.446960 
	C296.920532,308.137268 296.960541,296.827240 296.878754,285.518066 
	C296.851532,281.759674 295.256622,278.963257 291.064850,278.869659 
	C287.276947,278.785065 285.017426,280.957672 284.986969,284.667358 
	C284.869476,298.969482 284.885468,313.273834 285.003418,327.576050 
	C285.032288,331.077087 287.157776,333.106903 290.726349,333.172791 
	C294.550323,333.243378 296.555908,331.074158 296.863342,327.405182 
	C297.057129,325.092194 296.917572,322.751251 296.928009,319.446960 
z"/>
<path fill="#060708" opacity="1.000000" stroke="none" 
	d="
M248.984100,249.758530 
	C235.517151,257.361877 222.018753,264.911011 208.642685,272.670990 
	C207.566254,273.295441 206.794449,275.366669 206.785828,276.771149 
	C206.665161,296.422852 206.626556,316.076324 206.832062,335.726593 
	C206.850113,337.453003 208.323883,339.716614 209.804993,340.766235 
	C213.456833,343.354126 217.469620,345.447723 221.407593,347.612183 
	C224.705673,349.424896 226.331161,351.975037 225.664536,356.160522 
	C221.963959,360.459290 218.177719,360.095581 213.848099,357.221161 
	C209.189621,354.128448 204.101288,351.690002 199.352646,348.722626 
	C197.625031,347.643036 196.335754,345.861969 194.660629,343.680908 
	C194.446854,338.822540 194.411758,334.684235 194.392258,330.545868 
	C194.298645,310.688324 194.209259,290.830750 194.118362,270.973206 
	C196.079865,268.497223 197.545258,265.187286 200.081970,263.678223 
	C219.103836,252.362137 238.385239,241.483292 257.464264,230.261597 
	C261.358643,227.971039 264.562561,227.747009 268.533478,230.080856 
	C287.758820,241.380295 307.068756,252.538483 326.458923,263.552673 
	C330.451691,265.820709 331.937592,268.680267 331.903198,273.213715 
	C331.735199,295.365631 331.751007,317.519989 331.895050,339.672272 
	C331.923065,343.982758 330.559631,346.790161 326.719574,348.974976 
	C307.191742,360.085358 287.742218,371.335205 268.357300,382.693298 
	C264.575195,384.909302 261.389771,384.883545 257.712372,382.548309 
	C252.378494,379.161255 246.877899,376.012787 241.298325,373.044769 
	C237.344070,370.941376 235.565796,368.157501 236.938080,363.365784 
	C240.156586,360.390778 243.567810,360.210083 247.732758,362.559753 
	C252.046539,365.087616 255.925156,367.047119 259.458527,369.503265 
	C262.059723,371.311432 264.133881,371.168884 266.738403,369.647919 
	C283.380859,359.929382 300.123322,350.381409 316.710815,340.570862 
	C318.210876,339.683655 319.731934,337.346344 319.750183,335.666229 
	C319.961517,316.206421 319.946320,296.742950 319.773071,277.282410 
	C319.758606,275.658264 318.585419,273.333618 317.239655,272.540039 
	C300.211639,262.499084 283.072662,252.645126 265.887604,242.874268 
	C264.627197,242.157639 262.450623,241.788651 261.287323,242.391464 
	C257.051208,244.586594 253.064682,247.263336 248.984100,249.758530 
z"/>
<path fill="#0A0A0B" opacity="1.000000" stroke="none" 
	d="
M342.568695,199.519394 
	C344.630157,201.462189 347.332855,203.331055 347.567810,205.470886 
	C347.760193,207.222946 345.012543,209.297852 343.311646,211.431305 
	C310.729736,211.609329 278.404388,211.590759 246.079056,211.547440 
	C244.422943,211.545212 242.265808,211.939713 241.221649,211.080460 
	C239.382004,209.566635 237.182114,207.270752 237.095718,205.219650 
	C237.022354,203.478043 239.521042,201.387177 241.272171,199.915482 
	C242.096802,199.222443 243.837921,199.535736 245.163757,199.535629 
	C277.490082,199.532944 309.816406,199.549530 342.568695,199.519394 
z"/>
<path fill="#08090A" opacity="1.000000" stroke="none" 
	d="
M342.731628,174.712952 
	C349.534576,178.401428 349.673523,182.750763 343.272644,186.660004 
	C319.017761,186.842056 295.022522,186.815918 271.027435,186.750259 
	C269.211304,186.745285 266.930481,187.081970 265.691345,186.155518 
	C263.914368,184.826920 261.677399,182.343185 261.874268,180.606216 
	C262.105042,178.570389 264.548828,176.582214 266.412170,175.028442 
	C267.227661,174.348450 268.984619,174.742386 270.314087,174.741989 
	C294.311615,174.734695 318.309174,174.741684 342.731628,174.712952 
z"/>
<path fill="#070809" opacity="1.000000" stroke="none" 
	d="
M308.954010,149.895630 
	C311.939667,149.901840 314.438995,149.806152 316.926239,149.938248 
	C320.588165,150.132736 322.960480,152.020355 323.007690,155.810440 
	C323.054565,159.575790 320.789062,161.803314 317.114746,161.830460 
	C300.655548,161.951950 284.194763,161.941010 267.735107,161.862900 
	C264.048187,161.845398 261.645142,159.716019 261.653870,155.991547 
	C261.663971,151.690460 264.454559,149.899063 268.558350,149.899307 
	C281.859650,149.900101 295.160980,149.897141 308.954010,149.895630 
z"/>
<path fill="#090A0B" opacity="1.000000" stroke="none" 
	d="
M179.775421,171.808411 
	C182.688080,170.473145 185.176514,169.057220 187.838928,168.154358 
	C191.065140,167.060303 193.824783,168.038040 195.334045,171.266220 
	C196.869644,174.550659 195.691605,177.251801 192.728210,178.891296 
	C189.243301,180.819321 185.532608,182.340027 181.915375,184.027832 
	C178.320419,185.705215 175.221985,185.017120 173.467606,181.434601 
	C171.687134,177.798874 173.253006,175.010498 176.709030,173.210464 
	C177.593475,172.749802 178.520706,172.371323 179.775421,171.808411 
z"/>
<path fill="#090A0B" opacity="1.000000" stroke="none" 
	d="
M207.952820,186.067627 
	C206.854019,183.603622 205.715607,181.551590 204.960266,179.367096 
	C203.755936,175.884094 204.805801,173.044189 208.269958,171.585068 
	C211.575958,170.192551 214.189941,171.582306 215.785446,174.545242 
	C217.513565,177.754486 218.972046,181.114578 220.442780,184.455261 
	C222.000061,187.992493 221.442459,191.146317 217.779297,192.868408 
	C214.118729,194.589310 211.369049,193.012634 209.593201,189.560471 
	C209.062195,188.528259 208.586258,187.467743 207.952820,186.067627 
z"/>
<path fill="#090A0B" opacity="1.000000" stroke="none" 
	d="
M229.131622,162.123413 
	C226.813187,163.156723 224.916306,164.282425 222.865707,164.884262 
	C219.548492,165.857834 216.335709,164.756119 215.737213,161.407852 
	C215.340286,159.187286 216.503021,155.735275 218.203949,154.310318 
	C220.917114,152.037338 224.608368,150.870544 227.980591,149.462341 
	C231.548615,147.972382 234.671677,148.722641 236.311630,152.439224 
	C237.863892,155.957031 236.276093,158.545395 233.087036,160.270325 
	C231.919357,160.901932 230.686996,161.414032 229.131622,162.123413 
z"/>
<path fill="#F5FFFF" opacity="1.000000" stroke="none" 
	d="
M193.798340,271.250488 
	C194.209259,290.830750 194.298645,310.688324 194.392258,330.545868 
	C194.411758,334.684235 194.446854,338.822540 194.461624,343.422180 
	C193.966202,342.772736 193.066650,341.663300 193.063232,340.551117 
	C192.994003,318.011841 193.024933,295.472260 193.058731,272.932770 
	C193.059433,272.464233 193.332352,271.996124 193.798340,271.250488 
z"/>
<path fill="#344E6B" opacity="1.000000" stroke="none" 
	d="
M249.008057,250.128204 
	C253.064682,247.263336 257.051208,244.586594 261.287323,242.391464 
	C262.450623,241.788651 264.627197,242.157639 265.887604,242.874268 
	C283.072662,252.645126 300.211639,262.499084 317.239655,272.540039 
	C318.585419,273.333618 319.758606,275.658264 319.773071,277.282410 
	C319.946320,296.742950 319.961517,316.206421 319.750183,335.666229 
	C319.731934,337.346344 318.210876,339.683655 316.710815,340.570862 
	C300.123322,350.381409 283.380859,359.929382 266.738403,369.647919 
	C264.133881,371.168884 262.059723,371.311432 259.458527,369.503265 
	C255.925156,367.047119 252.046539,365.087616 248.123413,362.660614 
	C254.814133,358.179718 261.625885,353.830963 268.597870,349.756348 
	C278.478058,343.982086 288.581482,338.581268 298.330963,332.599518 
	C300.169647,331.471405 301.775452,328.397278 301.828278,326.181519 
	C302.149261,312.717529 302.112640,299.239655 301.845215,285.773346 
	C301.808929,283.946045 300.252930,281.423309 298.655334,280.465088 
	C283.018707,271.086212 267.217438,261.982117 251.490021,252.753815 
	C250.552292,252.203583 249.845993,251.258972 249.008057,250.128204 
z"/>
<path fill="#020406" opacity="1.000000" stroke="none" 
	d="
M269.891998,325.479584 
	C270.629303,329.545135 269.980591,332.767303 265.933380,333.795654 
	C261.639832,334.886597 259.218353,332.182739 258.268585,328.493652 
	C257.232117,324.467804 254.996506,323.137848 251.079681,323.712708 
	C249.450546,323.951843 247.733582,323.938904 246.098145,323.723999 
	C241.116440,323.069305 237.562363,323.993988 236.284073,329.809174 
	C235.517731,333.295380 232.310944,334.889526 228.797882,333.680756 
	C224.994232,332.372009 223.935150,329.140839 225.270706,325.547058 
	C230.483032,311.521454 235.687851,297.486023 241.378952,283.653168 
	C242.219299,281.610596 245.697906,279.442078 247.887833,279.510498 
	C250.032227,279.577454 253.142807,281.996368 254.013901,284.125671 
	C259.551758,297.662262 264.586945,311.404572 269.891998,325.479584 
M249.763428,305.813080 
	C249.136871,304.356323 248.510300,302.899567 247.445862,300.424744 
	C245.899963,304.622620 244.736313,307.782532 243.360901,311.517456 
	C246.605591,311.517456 248.956696,311.517456 251.758316,311.517456 
	C251.072647,309.575562 250.532623,308.046143 249.763428,305.813080 
z"/>
<path fill="#020407" opacity="1.000000" stroke="none" 
	d="
M296.927795,319.934906 
	C296.917572,322.751251 297.057129,325.092194 296.863342,327.405182 
	C296.555908,331.074158 294.550323,333.243378 290.726349,333.172791 
	C287.157776,333.106903 285.032288,331.077087 285.003418,327.576050 
	C284.885468,313.273834 284.869476,298.969482 284.986969,284.667358 
	C285.017426,280.957672 287.276947,278.785065 291.064850,278.869659 
	C295.256622,278.963257 296.851532,281.759674 296.878754,285.518066 
	C296.960541,296.827240 296.920532,308.137268 296.927795,319.934906 
z"/>
<path fill="#495F77" opacity="1.000000" stroke="none" 
	d="
M249.878021,306.164917 
	C250.532623,308.046143 251.072647,309.575562 251.758316,311.517456 
	C248.956696,311.517456 246.605591,311.517456 243.360901,311.517456 
	C244.736313,307.782532 245.899963,304.622620 247.445862,300.424744 
	C248.510300,302.899567 249.136871,304.356323 249.878021,306.164917 
z"/>
</svg>